/* XPM */
static char *result[] = {
/* columns rows colors chars-per-pixel */
"16 16 4 1 ",
"  c #442434",
". c #854C30",
"X c #D27D2C",
"o c None",
/* pixels */
"..   ......  ...",
"oXX....XXXXX..Xo",
"oooXXXXXXooXXXoo",
"oooooooooooooooo",
"oooooooooooooooo",
"oooooooooooooooo",
"oooooooooooooooo",
"oooooooooooooooo",
"oooooooooooooooo",
"oooooooooooooooo",
"oooooooooooooooo",
"oooooooooooooooo",
"oooooooooooooooo",
"oooooooooooooooo",
"oooooooooooooooo",
"oooooooooooooooo"
};
