/* XPM */
static char *result[] = {
/* columns rows colors chars-per-pixel */
"16 16 5 1 ",
"  c #DAD45E",
". c #D2AA99",
"X c #D04648",
"o c #854C30",
"O c white",
/* pixels */
" .X.    .X.     ",
"..X......X......",
"..X......X......",
"XXXXXXXXXXXXXXXX",
".....X.......X..",
".....X.......X..",
".....X.......X..",
"oXXXXXXXXXXXXXXo",
"o..X.......X...o",
"o..X.......X...o",
"o..X.......X...o",
"oooXXXXXXXXXXXoo",
"o.....X........o",
"o.....X........o",
"o.....X........o",
"ooXXXXXXXXXXXooo"
};
