/* XPM */
static char *result[] = {
/* columns rows colors chars-per-pixel */
"16 16 4 1 ",
"  c #854C30",
". c #D2AA99",
"X c #D04648",
"o c white",
/* pixels */
" .X......X..... ",
" .X......X..... ",
" .X......X..... ",
"   XXXXXXXXXXX  ",
" ....X.......X. ",
" ....X.......X. ",
" ....X.......X. ",
" XXXXXXXXXXXXXX ",
" ..X.......X... ",
" ..X.......X... ",
" ..X.......X... ",
"   XXXXXXXXXXX  ",
" .....X........ ",
" .....X........ ",
" .....X........ ",
"  XXXXXXXXXXX   "
};
