/* XPM */
static char *result[] = {
/* columns rows colors chars-per-pixel */
"16 16 3 1 ",
"  c #6DAA2C",
". c #346524",
"X c white",
/* pixels */
"   .   ..       ",
".  .      .     ",
" . .            ",
"                ",
"        .    . .",
"  .     . .  .  ",
". .  .  ...     ",
" ....   ..      ",
" .. .           ",
"           .    ",
"           . .  ",
"   .     . ..   ",
"   . ..   ...   ",
"   ...          ",
"  .  .   .      ",
"       . . .    "
};
