/* XPM */
static char *result[] = {
/* columns rows colors chars-per-pixel */
"32 32 203 2 ",
"   c #103808",
".  c #123F05",
"X  c #0E3A18",
"o  c #1A4C0D",
"O  c #0B4117",
"+  c #1A401C",
"@  c #1A4813",
"#  c #1C5212",
"$  c #26580B",
"%  c #244E15",
"&  c #275618",
"*  c #315D1E",
"=  c #2E631E",
"-  c #34671E",
";  c #0E4028",
":  c #104827",
">  c #1C4828",
",  c #224D24",
"<  c #255324",
"1  c #2B5A28",
"2  c #315D29",
"3  c #3C5C2E",
"4  c #2B6224",
"5  c #336522",
"6  c #3A6D25",
"7  c #34642A",
"8  c #396527",
"9  c #3C7323",
"0  c #3D7F20",
"q  c #2F6E34",
"w  c #426417",
"e  c #447B1A",
"r  c #40741D",
"t  c #41652E",
"y  c #407124",
"u  c #47792B",
"i  c #4A7735",
"p  c #D47B24",
"a  c #D87B26",
"s  c #3D821D",
"d  c #45891E",
"f  c #50971A",
"g  c #589A1C",
"h  c #6CA61C",
"j  c #4D8323",
"k  c #468F24",
"l  c #4D8528",
"z  c #539A26",
"x  c #5C9B25",
"c  c #58962D",
"v  c #649E2C",
"b  c #699F2A",
"n  c #62942B",
"m  c #628A39",
"M  c #649B38",
"N  c #4FA529",
"B  c #5EA226",
"V  c #5DA432",
"C  c #65A324",
"Z  c #6BA626",
"A  c #6CAB25",
"S  c #64A52B",
"D  c #6BA52A",
"F  c #65AA2A",
"G  c #6DAA2C",
"H  c #63A921",
"J  c #7BA72A",
"K  c #72AC2C",
"L  c #7AAB2B",
"P  c #75A725",
"I  c #74B12B",
"U  c #7CB42E",
"Y  c #6DA632",
"T  c #6DAB32",
"R  c #65A933",
"E  c #72AC32",
"W  c #79AD35",
"Q  c #71A73C",
"!  c #6DB539",
"~  c #75B132",
"^  c #7DB333",
"/  c #7BB23A",
"(  c #7ABA36",
")  c #5A8C42",
"_  c #688E43",
"`  c #8AA52F",
"'  c #82B22D",
"]  c #8CBD2E",
"[  c #91BD2E",
"{  c #80AE3C",
"}  c #86A236",
"|  c #8AB73D",
" . c #84BD3C",
".. c #95B839",
"X. c #A9B838",
"o. c #B7BD37",
"O. c #D58224",
"+. c #DC842B",
"@. c #DD8427",
"#. c #D78130",
"$. c #CABE2F",
"%. c #C2BC33",
"&. c #C0B636",
"*. c #8AC336",
"=. c #AAC737",
"-. c #BEC93D",
";. c #B8C638",
":. c #C0C62B",
">. c #CCC735",
",. c #C0C33D",
"<. c #D1D636",
"1. c #CCCF38",
"2. c #E5DC33",
"3. c #8DB945",
"4. c #8BBE51",
"5. c #B7BC41",
"6. c #86C345",
"7. c #A6CF43",
"8. c #BDC244",
"9. c #BBDB4D",
"0. c #BFCD68",
"q. c #C0CA43",
"w. c #C8CA44",
"e. c #CBC54B",
"r. c #C9CC48",
"t. c #D0C743",
"y. c #DDC94B",
"u. c #C3D04A",
"i. c #D0D14B",
"p. c #CACF54",
"a. c #C5CB52",
"s. c #D2C952",
"d. c #CCD854",
"f. c #DED553",
"g. c #D4D65B",
"h. c #DCD45A",
"j. c #D1D95A",
"k. c #DED855",
"l. c #E5DB5E",
"z. c #E0D15D",
"x. c #E7E55F",
"c. c #C7D364",
"v. c #DCD162",
"b. c #D6D96D",
"n. c #DBDA69",
"m. c #D6D765",
"M. c #E2D967",
"N. c #EFDD65",
"B. c #E6DA6B",
"V. c #F2DB63",
"C. c #E8DA76",
"Z. c #F2DC74",
"A. c #F6DC7C",
"S. c #EFE16B",
"D. c #E9E76A",
"F. c #F2E26C",
"G. c #F5E66A",
"H. c #EDE573",
"J. c #E3E27A",
"K. c #EDE77B",
"L. c #FFE674",
"P. c #FCEC7D",
"I. c #FDEB72",
"U. c #E8D689",
"Y. c #F7DE86",
"T. c #F0DD89",
"R. c #E5E481",
"E. c #FFE086",
"W. c #F1E988",
"Q. c #D1DFC5",
"!. c #E3DCDA",
"~. c #CDECC6",
"^. c #C6E9CC",
"/. c #DAEAC6",
"(. c #D4EBCB",
"). c #DBE6C8",
"_. c #DDF3CB",
"`. c #DEF5C4",
"'. c #C6EFD6",
"]. c #CCEAD2",
"[. c #DDEED5",
"{. c #DAE6DC",
"}. c #DBECDC",
"|. c #D4E8D4",
" X c #CAF6DA",
".X c #DDF0D2",
"XX c #DAF5DD",
"oX c #D3F2D7",
"OX c #E7E1C8",
"+X c #E7F5CD",
"@X c #E4EEDB",
"#X c #E6EBD6",
"$X c #E2F2D9",
"%X c #DCEFE4",
"&X c #D1F5E4",
"*X c #DBF5F0",
"=X c #C8F5E9",
"-X c #ECEBE4",
";X c #E3EEE8",
":X c #E5F1E3",
">X c #EAF9E8",
",X c #E4FFFF",
"<X c #EBF5F2",
/* pixels */
"G G G G G G G G G G G G G G K K G G l.h.E S G G G G G G G G G G ",
"G G G T G G G G G G G G G K K K Z W b.M.| T D G G G G G G G G G ",
"G G G G G G G G G G G G G F G J 8.v.]./.H.5.F G G G G G G G G G ",
"G F G A D G G G G G G G G D C G w.L.}.[.P.&.K D G G G G G G D G ",
"G G {.$XG G G R G G D G G K A B H X.F.B.{ D K K G G G G G G G G ",
"G G }.;XY h G G G G G G K K L L N F q.-.T E K G F I G G G G G G ",
"G F K E = j A G D K G K T F r.e.F N V K A G G G G G G G G G K G ",
"G K Z F 1 5 A G G K G G Z 3.N.F.X.J W / K D K L T G G G I D G C ",
"G G K A * 1 G K G G G K o.F./.oXC.2.<.j.].'.h.;.G G K G A Y /..X",
"G K K G 6 5 T K G G F K ;.I.:X].0.s.M.U.!.>XY.g.L K K K Z G :X>X",
"K G G S f g S K G G K K A ..P.g.L W ].OX@.a {.+X^ Z G G A S 7 % ",
"K G L L *.3.L I G G A G N z s.,.S V &X@XO.+.#X[.K b K E K Z e u ",
"T G -.g.oX Xk.=.K G K G u 6 P ' V Q n.U.Q.(.K.h.S S w.8.D x D Y ",
"G T h.W.!.$XE.j.W Z K K 7 & x T F / >.g.oXXXn.$.E 4.F.V...E E E ",
"K K ~.@X+.a @X`.K D L K 2 = Z G G / *.( m i c 7.y.C.(.(.W.X.S K ",
"K C ].@Xp @.-X_.L G K T 8 0 G G S Z D l & # s ! -.S.(.[.L.%.G G ",
"G D g.T.Q..XR.h.^ D G b Y D E D l 8 y 6 & 5 D L Z ..D.F.9.F Y D ",
"K E o.M.&X|.M.>.Y R U L ~ F I S y , & 2 2 j D Z B C 5.t.f k D G ",
"G E [ 6.) i } ] F V ,.p.E x G T K x , @ c K C S F S n w X y D G ",
"G L h 0 % % d ! A ` S.J.3.T G T I K l i S ( / I U Z 5 ; > M A G ",
"G K l X 2 6 c I i.P.(.(.H.e.E D G G D T F I c.G.=.d ; > b K G G ",
"G G Q X % 9 V ' X.D.#X_.G.%.G G T G K G G K a.h.*.k 0 b I G G G ",
"G D G G X % D ( h W x.Z._ $ D G G K G G G E K T F D D K G G G G ",
"G G F G c r C D G S q.w.1 4 A K G G G G F K D D G F G G G G K K ",
"G G G G G G F G K G ' Z o 2 D G K G G G G K G K K K G G G G K E ",
"G G G G G G G K G K T S - i G G G G G G G F G G Z G K T G h A K ",
"G G G G G G T G K G G R D G T G G G G G G G K K Z ' 1.d.~.^.u.:.",
"K G G G G T K G F G G G G G G G G G G G G G C v x Y M.Z.-X<XA.Z.",
"K G K G G K G G G G G G T G G G G G G G G D 6   $ _ &X#Xp #.XX,X",
"G G G G G F T T G G G G G G G G G G G G G G v <   i =X#X#.O.OX{.",
"G G A K K F }..XA G G G G G G G G G G K G T K R # t s.Z.].|.m.h.",
"G K K K K H XX:XH G T G G G G G G G G G T G G G q 3 >.N.%X*Xv.f."
};
