/* XPM */
static char *result[] = {
/* columns rows colors chars-per-pixel */
"16 16 5 1 ",
"  c #8595A1",
". c #6DC2CA",
"X c #757161",
"o c #4E4A4E",
"O c white",
/* pixels */
"  .   ....   ...",
" X  X      X    ",
" X  X      X    ",
" XXXXXXXXXXXXXX ",
"X     X    X  XX",
"X     X    X    ",
"X     X    X    ",
"XXXXXXX    XXXXX",
"o  X  XXXXXX   o",
"o  X       X   o",
"o  X       X   o",
"o  X       X   o",
"ooXXXXXXXXXXXooo",
"o     X      X o",
"o     X      X o",
"oooXXXX      X o"
};
