/* XPM */
static char *result[] = {
/* columns rows colors chars-per-pixel */
"16 16 4 1 ",
"  c #4E4A4E",
". c #8595A1",
"X c #757161",
"o c white",
/* pixels */
" .....X......X  ",
" .....XXXXXXXX. ",
" .....X....X... ",
" X....X....X... ",
"   XXXXX...X... ",
" X.....XXXXXX   ",
" X.....X.....X. ",
"  XXXXXX.....X. ",
" ..X...X.XXXXX  ",
" ..X...XXX..... ",
" ..X.....X..... ",
" ..X.....X...XX ",
"  XXXXXXXXXXXX. ",
" .....X......X. ",
" .....X......X. ",
" XXXXXX......X. "
};
