/* XPM */
static char *_cf925b801414920d7c766cc8059038f2sVBO1AZL4GavQGO[] = {
/* columns rows colors chars-per-pixel */
"16 16 6 1 ",
"  c #D2AA99",
". c #D04648",
"X c #DAD45E",
"o c #854C30",
"O c #442434",
"+ c white",
/* pixels */
" .       .      ",
" .       .      ",
" .       .      ",
"................",
"     .       .  ",
"     .       .  ",
"XXXX . XXXXX . X",
".....o.......o..",
".....o.......o..",
"oooooooooooooooo",
"..o......o......",
"..o......o......",
"oooooooooooooooo",
"......O.......o.",
"......O.......O.",
"OOOOOOOOOOOOOOOO"
};
