/* XPM */
static char *_b098a724de140c5aec2d01361f082bdfclK1dWRmZZayexH[] = {
/* columns rows colors chars-per-pixel */
"16 16 4 1 ",
"  c #757161",
". c #4E4A4E",
"X c #346524",
"o c white",
/* pixels */
"              . ",
"      .         ",
" X    .       . ",
"....X.. XXX ... ",
"  .       .     ",
"  .       .     ",
"  .          X  ",
" .. ....X.. XX..",
"      .         ",
"      .       . ",
" X   XX  X    . ",
".X..X..X.... ...",
"  .             ",
"  .       .     ",
"  X XX    .    X",
" .. ....X... XXX"
};
