/* XPM */
static char *result[] = {
/* columns rows colors chars-per-pixel */
"32 32 125 2 ",
"   c #3E1D2E",
".  c #3C2D3C",
"X  c #37303E",
"o  c #3C343E",
"O  c #421D31",
"+  c #41212F",
"@  c #442434",
"#  c #432A34",
"$  c #4C2D36",
"%  c #4A2B38",
"&  c #502F3A",
"*  c #463139",
"=  c #3C3540",
"-  c #3E3844",
";  c #433D44",
":  c #454147",
">  c #4A4647",
",  c #4B4946",
"<  c #45424A",
"1  c #4A454B",
"2  c #4D494C",
"3  c #524D4E",
"4  c #584E4D",
"5  c #55514E",
"6  c #4F4B50",
"7  c #524D52",
"8  c #4C5052",
"9  c #555152",
"0  c #595553",
"q  c #5B5B56",
"w  c #5E5D59",
"e  c #685D42",
"r  c #645B4C",
"t  c #665655",
"y  c #635F57",
"u  c #6A5F54",
"i  c #625E5A",
"p  c #5F605C",
"a  c #6B634E",
"s  c #70664F",
"d  c #666253",
"f  c #6C6454",
"g  c #6D6956",
"h  c #64625C",
"j  c #6B665A",
"k  c #6D6A5B",
"l  c #726655",
"z  c #726C55",
"x  c #726D5C",
"c  c #796B5C",
"v  c #75715F",
"b  c #7A725F",
"n  c #7E785F",
"m  c #6D6C62",
"M  c #736E62",
"N  c #617166",
"B  c #757262",
"V  c #797563",
"C  c #7C7866",
"Z  c #76756A",
"A  c #797669",
"S  c #77796C",
"D  c #7C7B6A",
"F  c #747671",
"G  c #7B7675",
"H  c #7B7C71",
"J  c #80715F",
"K  c #817D6A",
"L  c #8B7775",
"P  c #817F73",
"I  c #85777A",
"U  c #828372",
"Y  c #878873",
"T  c #888877",
"R  c #8A8B78",
"E  c #8B7D85",
"W  c #857E89",
"Q  c #7D8484",
"!  c #7F8886",
"~  c #7F8B8E",
"^  c #7F8E92",
"/  c #789299",
"(  c #7FA6B6",
")  c #7DABBD",
"_  c #69B7BE",
"`  c #75B2B6",
"'  c #72B7BB",
"]  c #6FBFCC",
"[  c #72BCC3",
"{  c #71BBC8",
"}  c #7CBAD2",
"|  c #5FCBD1",
" . c #69C4C9",
".. c #6CC9CE",
"X. c #73C0C6",
"o. c #72C0C8",
"O. c #63CBD4",
"+. c #63D2DD",
"@. c #6DD3DA",
"#. c #5DD4E1",
"$. c #6DDCE7",
"%. c #8C8286",
"&. c #84898D",
"*. c #8D888F",
"=. c #908484",
"-. c #898593",
";. c #858D94",
":. c #8C8B94",
">. c #838E99",
",. c #898E9B",
"<. c #938690",
"1. c #859297",
"2. c #85939C",
"3. c #89939E",
"4. c #8595A2",
"5. c #8895A1",
"6. c #8699A5",
"7. c #8999A6",
"8. c #859BAA",
"9. c #899BA9",
"0. c #83A2AF",
"q. c #83A5B3",
"w. c #84AEBA",
"e. c #88B7CD",
"r. c #87BBCA",
/* pixels */
"4.4.A z 4.4.4.2.v B 4.2.6.2.x B x B B B B B v B v v M M B M v k ",
"2.4.V x 2.4.4.2.V B 2.6.6.2.B B B B B B B v v B Z B B B B B Z V ",
"4.4.A x 2.4.4.2.C k 2.6.4.2.>.2.2.>.1.>.2.&.x M ~ 1.1.1.2.2.4.4.",
"4.4.D f 4.4.4.4.C k 2.4.2.6.6.6.6.6.6.6.0.7.c B 6.8.6.6.6.4.2.4.",
"4.5.D l 2.6.4.2.b x 2.4.4.6.4.4.6.4.2.6.6.8.V v 4.6.6.6.4.4.4.4.",
"4.5.D a / 9.6.2.A V 2.6.3.3.2.4.4.2.2.3.3.2.V B 1.4.2.1.2.4.4.4.",
"4.6.A f b B x z f f M V V Z A S A B Z M z l f l V P P S B &.4.2.",
"2.3.A z g x V A H F B k v k z k x x x B V H H S k u s a e z 2.8.",
"B B 3.7.4.4.4.2.2.2.4.2.A z B M x x x Z ,.2.4.6.4.^ k g z x z z ",
"v x 2.8.3.4.4.4.4.4.6.4.H f B S S V l S 6.4.2.4.6.6.Q M A F Z A ",
"v M ,.6.2.5.5.5.4.3.4.2.P a G >.-.L z S 4.4.,.,.4.,.<.W &.>.,.1.",
"B B ,.8.4.3.3.5.3.>.( ,.U g :.e.} >.x V ,.8.6.3.3.7.q.q.0.8.6.8.",
"V v -.)  .| O.O.O...) 3.U f -.r.$. .Z b -.w...+.+.| $.@.q.7.9.9.",
"x x E q.] { [ [ { { 7.=.C d I / _ _ N c E 0.{ [ ' ` _ ` &.&.;.1.",
"2 8 x S B M B M M M M x 0 2 M A M m 2 4 M F M M M M M M M B M M ",
"6 2 z V B M B M x B b c 2 < g C K l > 3 l B B B B A M V x v b B ",
"2 2 M D V V v B b V V V 2 2 k K K M > 4 Z A A C B V B B b V V V ",
"2 7 m V m M B B M M v M 3 2 h A B j 2 7 M M k m x B M M B M M M ",
"2 1 < < 1 2 3 0 0 9 1 < : < 1 6 3 > < 1 1 1 2 7 9 0 0 3 2 2 2 2 ",
"7 3 5 5 7 2 > : ; > 3 0 9 9 3 3 4 3 7 3 3 3 3 2 : : : > 2 3 6 2 ",
"M x B x v v 6 2 k x M x x B B x M x B M x x z k 2 , f k k k x x ",
"B B b B v n 1 6 B V V B V B B v B B b B V A V V 7 2 C K C C A A ",
"b v B B B v 2 6 v B V V V B B B B B b B b V V V 9 1 v V K K K C ",
"B v B B B v 2 7 B M M B M M B M M B B M M B x m 7 2 m k j j j k ",
"3 d V B C v > 6 7 3 3 9 9 0 w i i w q 9 3 2 1 1 : : 1 2 2 1 > 1 ",
"- ; d C A k 2 2 2 > < > > ; ; X X ; ; : 2 7 7 9 0 9 3 3 7 3 2 7 ",
"- = = < 0 , d x x j j x x j 9 X   $ j m x k x x M B B x k j 9 9 ",
"w i i 0 < 2 D D A C A A C A m ; O & V D C A B V B B B A D D 5 ; ",
"R T T K * @ D D A A K D D S m -   $ A D K D C A A V B A U D # @ ",
"r r u t + @ u c k k x l x j 9 . @ % f x l x x x x x M k z t O @ ",
"@ @ @ # @ @ @ @ @ @ # @ @ @ @ @ @ @ @ @ + + @ + @ @ @ @ @ @ @ @ ",
"@ @ @ @ @ @ @ @ % @ @ @ @ @ @ @ @ @ @ @ @ @ @ @ @ @ @ % @ @ @ @ "
};
