/* XPM */
static char *result[] = {
/* columns rows colors chars-per-pixel */
"32 32 131 2 ",
"   c #3E1D2E",
".  c #3C2D3C",
"X  c #37303E",
"o  c #3C343E",
"O  c #421D31",
"+  c #41212F",
"@  c #442434",
"#  c #432A34",
"$  c #4C2D36",
"%  c #4A2B38",
"&  c #502F3A",
"*  c #463139",
"=  c #69593D",
"-  c #3C3540",
";  c #3E3844",
":  c #433D44",
">  c #454147",
",  c #4A4647",
"<  c #4B4946",
"1  c #45424A",
"2  c #4A454B",
"3  c #4D494C",
"4  c #524D4E",
"5  c #584E4D",
"6  c #55514E",
"7  c #4F4B50",
"8  c #524D52",
"9  c #4C5052",
"0  c #555152",
"q  c #595553",
"w  c #5B5B56",
"e  c #5E5D59",
"r  c #645B4C",
"t  c #6A5D49",
"y  c #665655",
"u  c #635F57",
"i  c #6A5F54",
"p  c #625E5A",
"a  c #5F605C",
"s  c #69614D",
"d  c #716148",
"f  c #72684F",
"g  c #666253",
"h  c #6C6554",
"j  c #6E6A55",
"k  c #64625C",
"l  c #6B665B",
"z  c #6D6A5B",
"x  c #716554",
"c  c #746B54",
"v  c #716759",
"b  c #726D5C",
"n  c #796B5C",
"m  c #75715E",
"M  c #7B715E",
"N  c #6D6C63",
"B  c #736E62",
"V  c #617166",
"C  c #767262",
"Z  c #797563",
"A  c #7C7866",
"S  c #76756B",
"D  c #797669",
"F  c #77796D",
"G  c #7C7B6A",
"H  c #747772",
"J  c #7C7675",
"K  c #757971",
"L  c #7B7C72",
"P  c #80715F",
"I  c #817D6A",
"U  c #8B7776",
"Y  c #85777A",
"T  c #7D837B",
"R  c #828372",
"E  c #878873",
"W  c #888877",
"Q  c #818379",
"!  c #8A8B78",
"~  c #827C84",
"^  c #8B7D85",
"/  c #857E89",
"(  c #7D8686",
")  c #7A929B",
"_  c #7F99A4",
"`  c #7FA5B6",
"'  c #7DABBE",
"]  c #69B7BE",
"[  c #75B2B6",
"{  c #72B7BB",
"}  c #6FBFC5",
"|  c #6FBFCC",
" . c #72BCC3",
".. c #71BDC8",
"X. c #7CB9D2",
"o. c #5FCBD1",
"O. c #6CC2CA",
"+. c #6CC9CE",
"@. c #73C0C6",
"#. c #71C2C9",
"$. c #63CBD3",
"%. c #63D2DD",
"&. c #6DD3DA",
"*. c #5DD4E0",
"=. c #6DDCE8",
"-. c #8C8286",
";. c #85868A",
":. c #8D878E",
">. c #85898E",
",. c #908484",
"<. c #898593",
"1. c #848C93",
"2. c #8B8C94",
"3. c #848E99",
"4. c #8A8F9B",
"5. c #938690",
"6. c #859196",
"7. c #86939D",
"8. c #89929D",
"9. c #8595A2",
"0. c #8994A1",
"q. c #8399A4",
"w. c #899AA6",
"e. c #849DAB",
"r. c #899AA9",
"t. c #84A1AD",
"y. c #84A4B3",
"u. c #81AAB7",
"i. c #84AEBA",
"p. c #88B6CD",
"a. c #87BBCA",
/* pixels */
"9.9.0.t.O.O.q.8.q.7.4.t.O.O.O.O.O.O.O.#.e.2.q.7.6.t.O.O.O.O.O.O.",
"9.9.1.7.} O.w.2.6.7.1.e.#.O.O.O.O.#.#...e.2.6.7.4.e.| #.O.O.@.O.",
"9.9.G B ) i.t.;.Z K 3.e._ q._ q.e.q.q.q.r.>.Z F 3.e._ q.q.q.q.9.",
"9.7.F v ~ 0.t.2.v b 7.w.0.4.3.8.3.8.4.8.e.7.c b 7.w.0.3.3.3.0.7.",
"9.0.G x 1.q.e.8.b m 9.9.7.w.9.9.9.9.9.7.9.q.b b 9.q.9.7.0.9.9.7.",
"9.w.G x 3.e.w.6.C D 6.0.7.7.7.7.7.7.7.0.8.w.Z D 6.9.7.7.9.7.9.9.",
"9.r.L x b c h f h v C C F F C F F F S C b b v C I Q T T L ( q.9.",
"7.7.C j b D G L K L C b b c b z c b n b Z C S C l t t d = c 6.r.",
"C Z 7.w.9.9._ 3.7.7.9.7.D b m m m b v D 3.7.7.q.q.1.l c c c c v ",
"m b 7.q.0.0.9.9.0.0.9.9.L h C F S C j F q.9.0.0.9.9.( B S H S D ",
"m B 4.q.7.0.0.9.9.0.9.7.L s J 1.:.U c F 0.9.8.4.0.4.5./ 1.1.6.6.",
"C C 4.e.9.7.8.0.9.q._ 7.R j 2.p.X.3.n D 3.e.9.7.9.w.y.u.t.e.q.r.",
"Z m <.' O.o.$.$.$.O.' 6.E h 5.a.=.O.S M <.i.+.%.o.*.=.&.y.w.w.w.",
"b b ^ y.| @. . .....w.,.G u Y ) ] ] V n -.e... . .[ [ [ 1.;.1.6.",
"3 9 b S C C B B B C C b q 3 B S B N 9 5 B H B B N B B B B C C C ",
"7 3 b Z C b C B b C n n 3 > l A I v , 4 v C C C C C C C b C C C ",
"3 3 C G S C C Z m A A Z 3 3 l I I B , 5 C D D C D C C Z C Z Z Z ",
"3 8 N C b B B C B B B B 0 3 k D n l 3 8 B B z C N C b B B C B B ",
"3 2 1 1 3 3 5 0 q 0 2 > > 1 2 7 3 2 1 2 2 2 4 4 q q q 6 4 3 3 3 ",
"4 8 6 6 4 3 , : : 2 6 0 0 6 4 4 4 4 6 6 4 4 3 3 > : > , 3 8 3 3 ",
"B C b m m m 3 3 l b b B B C C b b C b C B b b l 3 3 h j l z b b ",
"C C m C m Z 7 7 m A Z Z C Z C m C C Z C Z Z A Z 8 3 Z I A A Z D ",
"m m C C m m 3 7 m m Z Z C C C C C C Z C C Z A D 0 3 m D I R I A ",
"C C C C D b 3 8 C C N m B C B C m B m B B B b z 3 3 N l h l l z ",
"5 u Z Z Z m , 7 4 4 5 6 q q e u k k e 0 4 3 3 1 1 1 2 7 3 2 < 3 ",
"; : u A Z z 3 3 2 3 1 1 2 : ; . . - : > 3 8 8 6 q 0 4 4 8 3 3 7 ",
"- - - 2 0 , g B B l l v v h 0 X   % h z z b b b b C C b z l 0 0 ",
"a p u 0 1 4 G G D D A A G G V :   & D G D D Z Z C C C D G G 6 : ",
"! W W I * # A G G A A G G F N ;   $ C T G G A D Z Z Z A I T # + ",
"r r i y + @ i b v B v b b l 0 . @ % h v v v b b B b B b b y + + ",
"@ @ @ @ # @ @ @ @ @ @ # # @ @ O @ @ @ @ + @ + @ @ @ @ @ @ @ @ @ ",
"@ @ @ @ @ @ @ @ @ @ @ @ @ @ # # @ @ @ @ @ @ @ @ @ @ @ @ @ @ @ @ "
};
