/* XPM */
static char *result[] = {
/* columns rows colors chars-per-pixel */
"16 16 10 1 ",
"  c #140C1C",
". c #442434",
"X c #4E4A4E",
"o c #757161",
"O c #854C30",
"+ c #D27D2C",
"@ c #D04648",
"# c #DAD45E",
"$ c #8595A1",
"% c None",
/* pixels */
"%%%%%%%@@%%%%%%%",
"%%%%%@@@@%%%%%%%",
"%%%%%%%..%%%%%%%",
"%@@%%%.OO.%%@@%%",
"%%.%X.O++O.X%.%%",
"%.O.oo....oo.O.%",
".O+@@oXoo@@.O+O.",
"%.....XooX.....%",
"%Xo.OO.oo.OO.oX%",
"%X.O++O..O++O.X%",
"%Xo....oo....oX%",
"%X$XooX  XooX$X%",
"%...ooXOOXoo...%",
"%%%.$$....$$.%%%",
"%%%%..%##%..%%%%",
"%%%%%%%##%%%%%%%"
};
