/* XPM */
static char *result[] = {
/* columns rows colors chars-per-pixel */
"32 32 187 2 ",
"   c #000004",
".  c #09001F",
"X  c #3E0F11",
"o  c #36231F",
"O  c #120C39",
"+  c #240B29",
"@  c #2A1526",
"#  c #361A2C",
"$  c #3B1D2D",
"%  c #361430",
"&  c #361B34",
"*  c #3B1D33",
"=  c #3C1633",
"-  c #3D2925",
";  c #3C222C",
":  c #3D2324",
">  c #2B213C",
",  c #3F2431",
"<  c #3F2933",
"1  c #3C233B",
"2  c #4E0C00",
"3  c #5A1B0A",
"4  c #421D18",
"5  c #551419",
"6  c #442519",
"7  c #582119",
"8  c #5E2A19",
"9  c #612F19",
"0  c #67361E",
"q  c #6D3A1E",
"w  c #69361B",
"e  c #753D1E",
"r  c #481C2D",
"t  c #421E3A",
"y  c #4D1E32",
"u  c #4B2425",
"i  c #44222D",
"p  c #49262D",
"a  c #4B2F23",
"s  c #53252C",
"d  c #542B2C",
"f  c #5A2828",
"g  c #573326",
"h  c #5E312F",
"j  c #442434",
"k  c #492533",
"l  c #462935",
"z  c #4B2A35",
"x  c #43243A",
"c  c #4B243A",
"v  c #442839",
"b  c #4B2C39",
"n  c #522B35",
"m  c #532339",
"M  c #4B343B",
"N  c #5D313A",
"B  c #60262E",
"V  c #652E26",
"C  c #643424",
"Z  c #61352C",
"A  c #653929",
"S  c #6D3D2B",
"D  c #753E23",
"F  c #60303A",
"G  c #683D39",
"H  c #6B422F",
"J  c #7C4123",
"K  c #7C442C",
"L  c #75422B",
"P  c #744533",
"I  c #7C4730",
"U  c #3A1B40",
"Y  c #431A47",
"T  c #4D1F48",
"R  c #471844",
"E  c #4C2544",
"W  c #4D2048",
"Q  c #442941",
"!  c #552446",
"~  c #59384B",
"^  c #4E2854",
"/  c #6C5462",
"(  c #843D36",
")  c #844B2B",
"_  c #8A4C2D",
"`  c #954A2A",
"'  c #89502C",
"]  c #844533",
"[  c #824B34",
"{  c #8C4E34",
"}  c #8D4332",
"|  c #8D5234",
" . c #8C543C",
".. c #945333",
"X. c #9E5834",
"o. c #94573D",
"O. c #94593F",
"+. c #9C5D3D",
"@. c #945936",
"#. c #A5592B",
"$. c #A66228",
"%. c #AC682C",
"&. c #B16D2C",
"*. c #BD6E2C",
"=. c #B56A28",
"-. c #AB6233",
";. c #AF6E35",
":. c #A1613F",
">. c #AB653C",
",. c #B86E31",
"<. c #B36834",
"1. c #BA7433",
"2. c #B67739",
"3. c #B67B36",
"4. c #D06D19",
"5. c #D5791E",
"6. c #C66A25",
"7. c #CF7625",
"8. c #CF7D25",
"9. c #CB762A",
"0. c #CE7C2A",
"q. c #C57327",
"w. c #D07425",
"e. c #D37C25",
"r. c #D17629",
"t. c #D37D2C",
"y. c #D97F2C",
"u. c #C67331",
"i. c #C97632",
"p. c #C47934",
"a. c #CE7C33",
"s. c #C17238",
"d. c #CF7F3C",
"f. c #D27E31",
"g. c #DD7D32",
"h. c #905740",
"j. c #985742",
"k. c #935A42",
"l. c #95564C",
"z. c #8F6642",
"x. c #996F5B",
"c. c #A06243",
"v. c #B37D54",
"b. c #BB8138",
"n. c #BC8034",
"m. c #CF8026",
"M. c #CE802A",
"N. c #D4812C",
"B. c #DB832C",
"V. c #DB8A2E",
"C. c #DC912C",
"Z. c #CD8434",
"A. c #D48233",
"S. c #DC8331",
"D. c #DC8930",
"F. c #DC8539",
"G. c #E68826",
"H. c #E08528",
"J. c #E18525",
"K. c #EC8D33",
"L. c #E39B3D",
"P. c #B9B654",
"I. c #BE8962",
"U. c #DCDA4D",
"Y. c #C4C857",
"T. c #D4C756",
"R. c #D7CA53",
"E. c #DACB56",
"W. c #DAC753",
"Q. c #D5D555",
"!. c #DCD153",
"~. c #D4D65B",
"^. c #DAD35A",
"/. c #D6DA5B",
"(. c #E1D555",
"). c #E4D358",
"_. c #E8D65A",
"`. c #E2DE59",
"'. c #E2E155",
"]. c #E5EB59",
"[. c #D2D364",
"{. c #DBD562",
"}. c #DDDD64",
"|. c #E0DD61",
" X c #DCE164",
".X c #E7ED6A",
"XX c None",
/* pixels */
"XXXXXXXXXXXXXXXXXXXXXXXXXXXXXXXXXXXXXXXXXXXXXXXXXXXXXXXXXXXXXXXX",
"XXXXXXXXXXXXXXXXXXXXXXXXXXXXXXXXXXXXXXXXXXXXXXXXXXXXXXXXXXXXXXXX",
"XXXXXXXXXXXXXXXXXXXXXXXXXXXXXXXXXXXXXXXXXXXXXXXXXXXXXXXXXXXXXXXX",
"XXXXXXXXXXXXXXXXXXXXXXXXXXXXXXXXXXXXXXXXXXXXXXXXXXXXXXXXXXXXXXXX",
"XXXXXXXXXXXXi t j k j x k k v v k v x v k j v z v b XXXXXXXXXXXX",
"XXXXXXXXXXXXb c j x x k v j k k k j , j k v k i x # XXXXXXXXXXXX",
"XXXXXXXXx n u.e.r.-.L S S w 0 w q e q D D K P I 9.y.E t XXXXXXXX",
"XXXXXXXXc x 0.G.K.H.-...o.+.:.c.j.+.+.+...| _ ..9.S.f Q XXXXXXXX",
"XXXXj p r.f._ +.X.+.+.k.k. .O.k.k. .k.h.| ' _ { { ` B.f.k * XXXX",
"XXXXj j e.B.K S P A 0 e J J e e e e J J K [ I [ P P m.r.c v XXXX",
"XXXXj j 0.t...g g D s.r.0.9.t.t.M.t.r.t.t.i.' A A [ r.0.p v XXXX",
"XXXXv i 0.t.#. .o.1.B.D.S.N.A.t.N.N.t.N.N.B.*.L I -.r.M.i l XXXX",
"XXXXx j 0.N.r.A.0.t.t.N.t.N.t.t.t.A.t.N.t.t.N.0.e.M.t.f.i k XXXX",
"XXXX< j r.y.0.t.0.N.t.N.t.t.t.t.0.t.t.r.t.N.y.t.N.8.t.M.j v XXXX",
"XXXXj < f.B.} ` 7.0.r.r.t.t.t.t.t.t.t.t.A.t.e.r.` ] 5.r.j k XXXX",
"XXXXx ; t.7.G z.A.A.A.a.t.0.8.0.8.m.m.M.M.N.N.Z. .P B.0.k j XXXX",
"XXXX< p 4.V.W.`.!.)._._.).(.(.W.E.(.E.R.R.W.E.^.Q.T.V.7.k i XXXX",
"XXXXj z 6.L.R.~.~.Q.~.~.~.[.[..X/.|.}. X}.}.^.{.{.E.C.w.l k XXXX",
"XXXXk k M M k - o - a d p r 9 3 3 2 4 4 6 6 : j l M z z k j XXXX",
"XXXXj t # # t t T Y Y * = m l.v.I.x.~ t ! ^ E y c = % i ; v XXXX",
"XXXXj $ C D 8 s s h C s 1 ~ ^.U.'..X/ 1 p 7 5 r s V J H j x XXXX",
"XXXXj b  .>.;.2.,.=.1.%.B + Y.'.'.P.  3 &.a.n.b.2.&.1.I j j XXXX",
"XXXXj k G O.p.f.0.a.9.0.D.<.@ > O . ,.V.0.a.A.A.f.d.j.s k j XXXX",
"XXXXx j N i.t.t.r.f.0.N.A.g.( R T +.B.f.t.f.f.r.0.t.p.Z p j XXXX",
"XXXXl * =.B.H.H.N.t.y.t.t.y.e.t.N.N.t.t.t.t.e.t.t.e.B.*.; i XXXX",
"XXXX* h K.r.q.i.a.r.t.t.f.f.M.0.M.e.f.f.t.t.r.0.a.f.t.J.N & XXXX",
"XXXXXXXXd i j ; , j j k j j t j j j i ; j t j k k k t d XXXXXXXX",
"XXXXXXXX, j v v j , k x j j i j j j i j j k j v j j x 1 XXXXXXXX",
"XXXXXXXXXXXXXXXXXXXXXXXXXXXXXXXXXXXXXXXXXXXXXXXXXXXXXXXXXXXXXXXX",
"XXXXXXXXXXXXXXXXXXXXXXXXXXXXXXXXXXXXXXXXXXXXXXXXXXXXXXXXXXXXXXXX",
"XXXXXXXXXXXXXXXXXXXXXXXXXXXXXXXXXXXXXXXXXXXXXXXXXXXXXXXXXXXXXXXX",
"XXXXXXXXXXXXXXXXXXXXXXXXXXXXXXXXXXXXXXXXXXXXXXXXXXXXXXXXXXXXXXXX"
};
