/* XPM */
static char *result[] = {
/* columns rows colors chars-per-pixel */
"16 16 6 1 ",
"  c #140C1C",
". c #442434",
"X c #4E4A4E",
"o c #757161",
"O c #8595A1",
"+ c None",
/* pixels */
"XXXXXXXXXXXXXXXX",
"XooooooooooooooX",
"XooooooooooooooX",
"oOOOOOOOOOOOOOOo",
"XXXXXXXXXXXXXXXX",
"X              X",
"X++..++..++..++X",
"X++XX++XX++XX++X",
"X++XX++XX++XXooX",
"X++XX++XX++XOOOX",
"X++XX++XX++XX XX",
"X++XX++XX++X...X",
"XXXXXXXXXXXXXXXX",
"XooXXooXXooXXooX",
"XOOOOOOOOOOOOOOX",
"XXXXXXXXXXXXXXXX"
};
