/* XPM */
static char *result[] = {
/* columns rows colors chars-per-pixel */
"16 16 6 1 ",
"  c #442434",
". c #854C30",
"X c #D27D2C",
"o c #DAD45E",
"O c #140C1C",
"+ c white",
/* pixels */
"                ",
".XXXXXXXXXXXXXX.",
".oooooooooooooo.",
"                ",
"    OOOOOOOO    ",
" X. OOOOOOOO .X ",
" X. OOOOOOOO .X ",
" X. OOOOOOOO .X ",
" X. OOOOOOOO .X ",
" X. OOOOOOOO .X ",
" X. OOOOOOOO .X ",
" X. OOOOOOOO .X ",
" X. OOOOOOOO .X ",
" X. OOOOOOOO .X ",
" X. OOOOOOOO .X ",
" .. OOOOOOOO .. "
};
