/* XPM */
static char *result[] = {
/* columns rows colors chars-per-pixel */
"16 16 8 1 ",
"  c #442434",
". c #4E4A4E",
"X c #757161",
"o c #854C30",
"O c #D27D2C",
"+ c #DAD45E",
"@ c #DEEED6",
"# c None",
/* pixels */
"########O#######",
"#######OO#######",
"#######O+O######",
"#####O#O@+O#####",
"#####OO+@++#####",
"#### +@+@@+ ####",
"### o+@@+@Oo ###",
"### oO++O+Oo ###",
"### ooO+OOoo ###",
"#### oooooo ####",
"#####      #####",
"###### .. ######",
"#####X .. X#####",
"####X o..o X####",
"####X oooo X####",
"#####X    X#####"
};
