/* XPM */
static char *result[] = {
/* columns rows colors chars-per-pixel */
"16 16 6 1 ",
"  c #442434",
". c #346524",
"X c #757161",
"o c #6DAA2C",
"O c #DAD45E",
"+ c None",
/* pixels */
"+++++.++++++++++",
"++++.O.+++++++++",
"++++.oO.++.+++++",
"++.+ oo..+..++++",
".+... o ..O.+.++",
".. o..  .oo ..++",
".O. .o. oo. o.+.",
".oO..oO.oo .....",
"+.oo..oO. ..OO.+",
"+ .o. oo..Ooo. +",
"XX .o. o.oo.  XX",
"+XX    o .  XXX+",
"+++++X    X+++++",
"++++++++++++++++",
"++++++++++++++++",
"++++++++++++++++"
};
