/* XPM */
static char *result[] = {
/* columns rows colors chars-per-pixel */
"16 16 5 1 ",
"  c #854C30",
". c #D27D2C",
"X c #DAD45E",
"o c #D2AA99",
"O c None",
/* pixels */
"           OO   ",
" .XXXXXXooo  Xo ",
"O .XX       XXX ",
"   X. XXXXXX XX ",
" .XX oXXXXXo X. ",
" XXX .ooooo .X O",
"O XXX      .oXo ",
" oXXXooooXXXXXX ",
" XXX..oXXXXXo. O",
" XX.O oXX.XXX OO",
" XX..oXXXXXoXo  ",
" oXXXoXXXXo.XX. ",
"  .XXXXXoo..XXX ",
"O   oXXXXXXXX. O",
" .oXXXo .ooXXXo ",
"       O        "
};
