/* XPM */
static char *result[] = {
/* columns rows colors chars-per-pixel */
"32 32 165 2 ",
"   c #360C1D",
".  c #3A0E21",
"X  c #3C1323",
"o  c #3C1628",
"O  c #3E1C2C",
"+  c #3E1F33",
"@  c #33232D",
"#  c #3E202D",
"$  c #3F312B",
"%  c #332431",
"&  c #3E2133",
"*  c #332A37",
"=  c #3C2B35",
"-  c #30233A",
";  c #312838",
":  c #3B2C3C",
">  c #3E3333",
",  c #3E333D",
"<  c #451726",
"1  c #411A27",
"2  c #4A1B27",
"3  c #43172B",
"4  c #431C2D",
"5  c #491D2B",
"6  c #461631",
"7  c #441E32",
"8  c #42222F",
"9  c #4A232F",
"0  c #442434",
"q  c #492534",
"w  c #432A35",
"e  c #4A2B35",
"r  c #46263A",
"t  c #482638",
"y  c #452B3A",
"u  c #4A2C3C",
"i  c #443137",
"p  c #473A32",
"a  c #45333E",
"s  c #4B313E",
"d  c #52473F",
"f  c #644836",
"g  c #63453B",
"h  c #654B3C",
"j  c #694C3E",
"k  c #3A2E42",
"l  c #3F3F49",
"z  c #472C40",
"x  c #4A2D41",
"c  c #4D3444",
"v  c #453C45",
"b  c #4A3D45",
"n  c #4B324A",
"m  c #44394C",
"M  c #523546",
"N  c #503248",
"B  c #50384B",
"V  c #4D4047",
"C  c #4C454B",
"Z  c #4E4A4D",
"A  c #524C44",
"S  c #514C4F",
"D  c #5C4C47",
"F  c #5B5244",
"G  c #54534F",
"H  c #5D554C",
"J  c #5F584B",
"K  c #454656",
"L  c #4E4D51",
"P  c #514D51",
"I  c #4F5356",
"U  c #545254",
"Y  c #585554",
"T  c #525658",
"R  c #555B5D",
"E  c #5B5D5B",
"W  c #655446",
"Q  c #685341",
"!  c #615549",
"~  c #645A4D",
"^  c #6C5E4F",
"/  c #635D53",
"(  c #695F50",
")  c #5D625E",
"_  c #68614F",
"`  c #626457",
"'  c #6B6353",
"]  c #646358",
"[  c #65695C",
"{  c #6E6C5C",
"}  c #716554",
"|  c #746A55",
" . c #736758",
".. c #746D5C",
"X. c #796E5C",
"o. c #75715F",
"O. c #7B735D",
"+. c #575966",
"@. c #556364",
"#. c #596867",
"$. c #5F626D",
"%. c #5F6D6A",
"&. c #5D6272",
"*. c #606665",
"=. c #746E61",
"-. c #6E7464",
";. c #64716D",
":. c #747363",
">. c #797462",
",. c #767A67",
"<. c #7C7A65",
"1. c #727668",
"2. c #797368",
"3. c #777B6A",
"4. c #7A7C6A",
"5. c #677571",
"6. c #867E64",
"7. c #7D816D",
"8. c #848675",
"9. c #848A76",
"0. c #8B8B75",
"q. c #838F7F",
"w. c #8B8D7A",
"e. c #8E937C",
"r. c #92937C",
"t. c #7F7F91",
"y. c #7E8393",
"u. c #7E8899",
"i. c #67B5BC",
"p. c #67BDBF",
"a. c #66BFC6",
"s. c #6EB8C7",
"d. c #6DBCCA",
"f. c #71BDCC",
"g. c #64C1CA",
"h. c #6CC2CD",
"j. c #73C6CD",
"k. c #6CC6D1",
"l. c #6BC9D3",
"z. c #70C8D4",
"x. c #70D0D5",
"c. c #839686",
"v. c #889586",
"b. c #869A89",
"n. c #889C8E",
"m. c #859C83",
"M. c #949C83",
"N. c #818396",
"B. c #848798",
"V. c #86899C",
"C. c #8A8D9B",
"Z. c #85949E",
"A. c #8AA089",
"S. c #9AA185",
"D. c #8695A1",
"F. c #8599A3",
"G. c #889BA3",
"H. c #8A98A6",
"J. c #84A6A9",
"K. c #8CA7AC",
"L. c #8DAAAD",
"P. c #83A2A4",
"I. c #8DACB2",
"U. c #91ADB2",
"Y. c None",
/* pixels */
"Z Z Z P U Z Z Z Z P S S S Z S S S Z Z Z S S Z S S Z Z Z S Z Z Z ",
"P Z Z Z C C Z S C Z Z Z Z Z C Z C C Z S Z C Z Z S Z Z A Z G P Z ",
"0 8 J ..o.-.,.:.:.{ { { { | -.1.3.3.1.:.1.1.1.1.1.:.-._ [ / u w ",
"q 7 1.0.:.| X.X.O.>.<.<.<.<.O.X.| | O.O.O...O.o...O.O.8.0.O.8 4 ",
"0 0 ,.>.w O o X . . . O + 0 4 o X o 3 0 7 4 5 3     . o 8.>.q 0 ",
"0 0 4. .0 w u n B c c x 0 q y c c u r r y & & x M B n r -.' q 0 ",
"q 0 3.| 4 y Z Z Z C C C 0 O a V P L I L 0 0 p.j.D.C.Z.F.q.Q e 0 ",
"q 0 ,.o.4 a Z Z P P P P y 0 I R L L L b 8 q g.h.F.Z.D.H.c.h 0 8 ",
"0 q :.>.7 u Z Z Z P P P 0 w R T i 0 r 0 4 e d.h.D.D.Z.F.n.f 0 0 ",
"0 0 :.:.7 0 V Z Z L C C 0 0 C = 7 7 7 q 4 u d.j.D.Z.D.D.b.f 0 0 ",
"0 0 :.o.0 0 0 5 q 0 e 0 4 + + + 7 6 7 0 4 u d.h.D.Z.D.Z.b.f & 0 ",
"0 0 ,...0 & w w 8 w 0 7 r u e 0 = w w 7 4 s a.h.D.Z.D.D.b.h 0 0 ",
"0 0 4. .w 0 b T Z a & e y.F.>.{ ..:.) : 4 u f.h.D.D.D.Z.b.h 0 0 ",
"0 q 4.=.0 0 a @.#.v 8 9 D.I.:...>.1.;.@ 5 x d.k.Z.Z.D.Z.c.h 0 0 ",
"0 0 <.X.r + 4 b @.C 0 q V.L.:.X.=.:.;.% < x d.k.Z.D.D.Z.c.h 0 0 ",
"0 q :.o.0 0 3 O v b 0 q B.J.>...o.:.;.% < c d.k.Z.D.F.Z.c.h 0 0 ",
"0 q 1...0 0 7 3 4 q 8 q D.u.:...X.-.;.O 2 x f.k.Z.D.D.Z.c.h 0 0 ",
"0 0 ,.X.0 8 w i y 0 0 q C.L.:...>.:.5.@ 3 x d.k.Z.Z.D.Z.c.h 0 0 ",
"0 0 >.:.0 0 v I L C w 0 y.I.=...>.-.%.% 5 u s.k.Z.D.D.Z.c.j 0 0 ",
"0 q ,.:.r 0 V U I C w q y.U.=...=.:.;.@ 5 z s.l.Z.D.D.Z.c.h 0 0 ",
"0 7 <...q w C U L C y 8 N.I.=...o.-.;.@ 5 u f.k.Z.D.D.Z.b.h 0 0 ",
"0 0 :.=.0 w C S Z Z u 4 N.I.X.X.>.=.;.% 2 x s.l.Z.Z.D.Z.A.g 0 0 ",
"0 0 :.>.+ y C L Z C s 1 y.U.=.=.=.=.;.@ 5 u s.l.G.Z.G.Z.M.d 0 0 ",
"0 8 1.>.3 w S L Z Z s 1 u.K.:...>.-.%.* 2 r d.k.Z.Z.Z.D.m.g w 0 ",
"0 8 1.>.3 y C Z Z Z a 3 B.K.2.....=.*., 5 r a.l.G.Z.Z.Z.m.j 0 0 ",
"q 0 =.>.4 y Z L Z C a 5 y.L.2...>.:.) , 0 r i.x.Z.C.C.G.c.h 0 0 ",
"0 8 Y.Y.a > v l V , : : m L C C Z C l * ; - k K P +.&.#.9.W 0 0 ",
"q 0 Y.Y.E E G U Y E #.` A A L Z S S H ] [ [ H D A p i i 7.' 8 0 ",
"0 q 4.M.e.e.9.7.4.8.7.8.8.e.r.r.r.e.w.0.8.8.9.w.0.r.r.e.S.>.0 0 ",
"0 4 H ' ~ ! ' ' ' ' ' ' ' H F F F F ~ ~ ( ' ~ ~ ! H F J ' D 0 0 ",
"0 0 0 0 0 0 0 0 q r 0 & 0 + 7 & + 0 0 0 0 0 0 q 0 + 0 & & & 0 0 ",
"0 0 7 0 & 4 0 0 0 0 0 0 0 0 0 0 0 0 0 0 0 0 0 0 0 0 q 0 0 q 0 0 "
};
