/* XPM */
static char *result[] = {
/* columns rows colors chars-per-pixel */
"16 16 6 1 ",
"  c #442434",
". c #4E4A4E",
"X c #757161",
"o c #6DC2CA",
"O c #8595A1",
"+ c None",
/* pixels */
"................",
" XXXXXXXXXXXXXX ",
" X            X ",
" X ... ... oOOX ",
" X ... .   oOOX ",
" X         oOOX ",
" X .. OXX. oOOX ",
" X  . OXX. oOOX ",
" X    OXX. oOOX ",
" X .. OXX. oOOX ",
" X .. OXX. oOOX ",
" X .. OXX. oOOX ",
" X .. OXX. oOOX ",
" +............X ",
" XXXXXXXXXXXXXX ",
"                "
};
