/* XPM */
static char *result[] = {
/* columns rows colors chars-per-pixel */
"32 32 208 2 ",
"   c #320518",
".  c #330C1B",
"X  c #321216",
"o  c #350F25",
"O  c #2B1B2D",
"+  c #281021",
"@  c #371626",
"#  c #3B1A25",
"$  c #3C1729",
"%  c #3C1B2C",
"&  c #321B26",
"*  c #3D1C33",
"=  c #3F1C39",
"-  c #2B232E",
";  c #36292B",
":  c #3F322F",
">  c #2A2432",
",  c #3D2232",
"<  c #3A2E3C",
"1  c #383538",
"2  c #411B2B",
"3  c #401D25",
"4  c #441D33",
"5  c #40282B",
"6  c #47352A",
"7  c #55322E",
"8  c #432434",
"9  c #492433",
"0  c #442A34",
"q  c #4B2A3C",
"w  c #482939",
"e  c #532A33",
"r  c #413E3C",
"t  c #493839",
"y  c #52383D",
"u  c #454132",
"i  c #4B473C",
"p  c #544A3B",
"a  c #57463B",
"s  c #62563C",
"d  c #3F3A43",
"f  c #363042",
"g  c #4E2E42",
"h  c #462A40",
"j  c #423643",
"k  c #4A3A43",
"l  c #513444",
"z  c #573C47",
"x  c #464146",
"c  c #4C4445",
"v  c #444149",
"b  c #4B4449",
"n  c #4E4B4D",
"m  c #4B4B47",
"M  c #514942",
"N  c #5E4A43",
"B  c #51444C",
"V  c #524C4D",
"C  c #59474B",
"Z  c #575147",
"A  c #444452",
"S  c #4D4E54",
"D  c #4A4656",
"F  c #514C52",
"G  c #594857",
"H  c #5C565C",
"J  c #5C5B5D",
"K  c #595854",
"L  c #645547",
"P  c #645C4C",
"I  c #6A5F4B",
"U  c #61574B",
"Y  c #614F57",
"T  c #625C56",
"R  c #6A5C50",
"E  c #615156",
"W  c #5F645B",
"Q  c #6F614C",
"!  c #72624C",
"~  c #646253",
"^  c #6B6556",
"/  c #6B6953",
"(  c #65645F",
")  c #6B655A",
"_  c #6E6B5C",
"`  c #666D59",
"'  c #75675D",
"]  c #736D5D",
"[  c #7C6E59",
"{  c #756554",
"}  c #74715E",
"|  c #7B735D",
" . c #6D735A",
".. c #4C4D64",
"X. c #4D5166",
"o. c #4C5569",
"O. c #555767",
"+. c #5B686F",
"@. c #5B6174",
"#. c #676663",
"$. c #6A6A67",
"%. c #736E61",
"&. c #6F7167",
"*. c #757263",
"=. c #797564",
"-. c #7A7A65",
";. c #7C7668",
":. c #7D7C6B",
">. c #777469",
",. c #626B7C",
"<. c #6A6D77",
"1. c #706C70",
"2. c #6E7A7A",
"3. c #737776",
"4. c #827E6C",
"5. c #807B63",
"6. c #807D75",
"7. c #7D806E",
"8. c #7F8274",
"9. c #7C837A",
"0. c #7A8A76",
"q. c #84826E",
"w. c #85876C",
"e. c #848372",
"r. c #8C8973",
"t. c #858D7B",
"y. c #8A8E7B",
"u. c #858779",
"i. c #8C927A",
"p. c #9C9A7F",
"a. c #697687",
"s. c #757E8A",
"d. c #727787",
"f. c #6A7895",
"g. c #727F96",
"h. c #75828D",
"j. c #7C898D",
"k. c #788487",
"l. c #7C8B94",
"z. c #7D8D99",
"x. c #758593",
"c. c #7C939B",
"v. c #7E91A2",
"b. c #7889A0",
"n. c #808D8B",
"m. c #898B80",
"M. c #8D9484",
"N. c #879584",
"B. c #939F87",
"V. c #989985",
"C. c #818E94",
"Z. c #849295",
"A. c #83949B",
"S. c #899898",
"D. c #A49884",
"F. c #91A181",
"G. c #8EA19D",
"H. c #91A49F",
"J. c #B0AE96",
"K. c #8596A3",
"L. c #8D9BA4",
"P. c #8B9DAB",
"I. c #8798A6",
"U. c #909DA9",
"Y. c #8DA1AC",
"T. c #98A6AC",
"R. c #92A2B2",
"E. c #94AAB4",
"W. c #94A3BA",
"Q. c #9CB3B7",
"!. c #99B2BD",
"~. c #A5B3BF",
"^. c #A7BCBA",
"/. c #BFDBBE",
"(. c #C6D4BD",
"). c #9EBEC4",
"_. c #A5BBC7",
"`. c #A6C2C4",
"'. c #AFCBC8",
"]. c #BCD9D7",
"[. c #B4C9CF",
"{. c #BDD9E1",
"}. c #CBDBC8",
"|. c #D4DEC5",
" X c #D5DFC8",
".X c #C5DDD6",
"XX c #C2DEDA",
"oX c #DAE3CA",
"OX c #D8E5CC",
"+X c #C9E0DC",
"@X c #C4E0DB",
"#X c #D6E6D4",
"$X c #DAECD9",
"%X c #D9EBD4",
"&X c #DEF1D7",
"*X c #DFF2DA",
"=X c #D5F3D7",
"-X c #E1EED3",
";X c #E2F1D3",
":X c #E3F4D9",
">X c #E5F8DC",
",X c #E2F7E3",
"<X c #E4F9E4",
"1X c #E9FEE3",
"2X c #E7FCEC",
"3X c #F4FFE8",
"4X c honeydew",
"5X c None",
/* pixels */
"*.} *.*.*.;.-.-.;.=.*.} 5X5X5X5X5X5X5X5X=.] ] ] } *.;.-.-.] ] *.",
";.} *._ / ;.=.) ~ _ ] ] 5X5X5X5X5X5X5X5X*.*.} _ _ -.} / *.^ %.*.",
"1 j /.=X^.z.h.x.}.OX%X}.4.) 5X5X5X5X^ q.}.;X;X(.j.a.x.Y.3X(.n Z ",
"E T 4X<XK.f.z.^.>X3X3X:X4.^ 5X5X5X5XT e.*X1X>X1X[.P.b.I.2X;XF x ",
"5X5Xy 8 A +.8.u.u.e.i.:.Y.L.:.| 5.=.S.Z.u.p.M.m.t.i.9.< + y 5X5X",
"5X5X@ q 9 C P Q ) N L T K.z.1.! Q 3.K.z.^ p p N M R r w w 5 5X5X",
"5X5X5X5X0 # A.`.2.c [ R b A o.f.x.O.A S ~ U c <.Q.h.8 4 5X5X5X5X",
"5X5X5X5X8 w d.x.v & *.8.r T T.].{.U.n c y.:.t A I.a.q q 5X5X5X5X",
"5X5X5X5X5X5Xg % * % c.).i D.%X$X:XoXe.T ).P.l 8 % w 5X5X5X5X5X5X",
"5X5X5X5X5X5Xt 2 9 # @.Y.1 J.:X:X>X>XV.i v.+.* 2 9 e 5X5X5X5X5X5X",
"5X5X5X5Xx r U =.%.6 $ g > M.,X:X>X1XM.> * & l { { M < x 5X5X5X5X",
"5X5X5X5Xn #.*.t.B.e.e 8 ; r }.:X-XOXm O 9 9 w.B.0.9.( K 5X5X5X5X",
"5X5X5X5X%.*.C.S.M.' 4 w ^ P i F J K / [ g   =.N.A.Z.4.^ 5X5X5X5X",
"5X5X5X5X] -.Z.K.u.6 % M -.4.K v f d ;.w.Y @ 7 u.L.A.;./ 5X5X5X5X",
"5X5X5X5X} >.A.K.C X N 7.c O.Z.E.E.A.F M w.C   E U.C.;.] 5X5X5X5X",
"5X5X5X5X} ;.Z.K.g o I r.< K j.c.A.s.A m w.] . l P.l.>.} 5X5X5X5X",
"5X5X5X5X} =.Z.I.l X / -.j c V M M M j b  .5.3 w R.k.=.] 5X5X5X5X",
"5X5X5X5X} *.Z.I.z # | *.D #.i.V.p.y.$.k ~ 4.5 h R.k.%.} 5X5X5X5X",
"5X5X5X5X*.>.C.P.O.; [ 6.a.Q.#X%X*X#X/.@.` r.: G R.j.%.*.5X5X5X5X",
"5X5X5X5X| %.n.Y.2.6 { %.a.Q.#X:X:X+X).a.T | u <.P.C.} *.5X5X5X5X",
"5X5X5X5X} *.j.W.V.L z 5 9 z $.9.9.$.Y w 4 y s V.W.C.] =.5X5X5X5X",
"5X5X5X5X} >.Z.I.u.a , 4 = % O O > O @ % * 4 a u.P.l.} | 5X5X5X5X",
"5X5X5X5X| %.h.s.@...........X...X.X.X.....D o.a.s.<./ | 5X5X5X5X",
"5X5X5X5X| $.L._.[.].].].@X@XXX@X+X.XXXXX.X].'.`._.R.3.*.5X5X5X5X",
"5X5X5X5Xh.T.*X*X<X1X<X,X,X,X,X,X,X<X,X,X1X<X<X<X<X$X~.s.5X5X5X5X",
"5X5X5X5Xa.E.%X-XoXoXoXoXoX|.oX|.oX|.|.|.|.|.|.oX%X$X!.a.5X5X5X5X",
"5X5X5X5XS n =.4.-.*.} } ] } } *.*.*.*.-.;.4.4.e.r.:.O.S 5X5X5X5X",
"5X5X5X5Xn n ) ] _ _ *.;.;.*.*._ ] ] ] _ _ ) ) T I U y c 5X5X5X5X",
"5X5X5X5Xm ( 4.q.:.q.4.e.e.e.e.e.e.6.4.-.=.=.:.:.e.:.W n 5X5X5X5X",
"5X5X5X5Xj F ) ^ _ / ~ ~ ~ ~ ~ ~ ~ ~ ) _ ] %._ ^ ) ~ b j 5X5X5X5X",
"5X5X5X5X8 , 8 8 * , m n n n n n n n n n V V 0 5 8 8 , 8 5X5X5X5X",
"5X5X5X5X8 8 8 9 w 9 F F n F V n F F n n F F 0 8 8 8 8 9 5X5X5X5X"
};
