/* XPM */
static char *result[] = {
/* columns rows colors chars-per-pixel */
"16 16 6 1 ",
"  c #757161",
". c #854C30",
"X c #D27D2C",
"o c #DAD45E",
"O c #DEEED6",
"+ c None",
/* pixels */
"+..+++....+++..+",
".oo...oooo...oo.",
".OXXXooOOooXXXO.",
"...XoX....XoX...",
".XX...XXXX...XX.",
".XXXXXXXXXXXXXX.",
".X.XXXXXXXXX.XX.",
".....XXXXXX.....",
".oX..........Xo.",
".oX.XXooooXX.Xo.",
".OO.XooooooX.OO.",
"....oOOOOOOo....",
".XX..........XX.",
".XXXXXXXXXXXXXX.",
".XX..........XX.",
"...          ..."
};
