/* XPM */
static char *result[] = {
/* columns rows colors chars-per-pixel */
"16 16 6 1 ",
"  c #442434",
". c #346524",
"X c #757161",
"o c #854C30",
"O c #6DAA2C",
"+ c None",
/* pixels */
"+++++++++++..+++",
"+++.++++++.O.+++",
"++.O.+++++.OO.++",
"++.O..+++.OO..++",
"+.OOO.+++..O. ++",
"+ .O..+++ O.O .+",
"+.O.. +++  .O..+",
"+. O . +.O.OOO.+",
".OO..O.+ .O.O. +",
" ..OOO.+ .  .  +",
"   . . ++     ++",
"+     ++++ o +++",
"++ o +++++ o +++",
"++ o ++++X o X++",
"+X o X+++X o X++",
"+Xoo X++++++++++"
};
