/* XPM */
static char *result[] = {
/* columns rows colors chars-per-pixel */
"16 16 6 1 ",
"  c #442434",
". c #346524",
"X c #757161",
"o c #854C30",
"O c #6DAA2C",
"+ c None",
/* pixels */
"++++......++++++",
"++....O.O...++++",
"+...OOOOOO...+++",
"+  ..OOOO... +++",
"  ..O.OO.O... ++",
" . ...O....   ++",
"  .. .... ..  ++",
".   .. ... . .++",
" .. .  .      ++",
"+    .   . . +++",
"++   .    . ++++",
"++XXX  o XXXX+++",
"+XXXX oo XXXXX++",
"+XXX ooo  XXXX++",
"++XXXo ooXXXX+++",
"+++XXXXXXXX+++++"
};
