/* XPM */
static char *result[] = {
/* columns rows colors chars-per-pixel */
"16 16 7 1 ",
"  c #442434",
". c #346524",
"X c #4E4A4E",
"o c #757161",
"O c #854C30",
"+ c #6DAA2C",
"@ c None",
/* pixels */
"@@@@@@@XX@@@@@@@",
"@@@@@@X++X@@@@@@",
"@@@@@X....X@@@@@",
"@@@@ +.X+ X @@@@",
"@@@@ X  X   @@@@",
"@@@@@ X  X @@@@@",
"@@@@X.XX.X+X@@@@",
"@@@X+..+.+.+X@@@",
"@@ X X+ .X XX @@",
"@@@   X X     @@",
"@@@ X  X  XX @@@",
"@@ +X.X..X..+ @@",
"@@   +.+ X+   @@",
"@@oo X    X oo@@",
"@@oo   OO  ooo@@",
"@@@ooo....ooo@@@"
};
