/* XPM */
static char *result[] = {
/* columns rows colors chars-per-pixel */
"16 16 8 1 ",
"  c #442434",
". c #4E4A4E",
"X c #757161",
"o c #854C30",
"O c #D27D2C",
"+ c #DAD45E",
"@ c #8595A1",
"# c None",
/* pixels */
"##oo############",
"oo++oo#####oo###",
"O+OO+O###oo++oo#",
"oooooo#++O+OO+O#",
"#.XX.#++#oooooo#",
"#.@@.#++##.XX.##",
"#    ##+##.@@.##",
"###oo##++#    ##",
"#oo++oo#+++#####",
"#O+OO+O##+++####",
"#oooooo###+++###",
"##.XX.####+++###",
"##.@@.###+++####",
"##    ###++#####",
"########++######",
"######++########"
};
